# xmcd
#
# Track frame offsets:
#	150
#	10950
#	24150
#	40800
#	53775
#	70199
#	89024
#	106349
#	138448
#	153673
#	176772
#	198972
#	212097
#	227772
#	248771
#	265945
#	281470
#	303594
#
# Disc length: 4253 seconds
#
# Revision: 1
# Processed by: cddbd v1.4PL0 Copyright (c) Steve Scherf et al.
# Submitted via: CDmax 1.9
#
DISCID=fa109b12
DTITLE=backporch tunes - selected acoustics
DYEAR=1997
DGENRE=Blues
TTITLE0=bus bootin'
TTITLE1=baby wants to boogie
TTITLE2=blaze's blues
TTITLE3=san francisco bay blues
TTITLE4=police dog blues
TTITLE5=cigarette blues
TTITLE6=you make me feel so good
TTITLE7=among the trees - sober now
TTITLE8=sittin' on top of the world
TTITLE9=cypress grove
TTITLE10=when you got a good friend
TTITLE11=nobody knows you when you're down and out
TTITLE12=kodak ghosts
TTITLE13=st. james infirmary
TTITLE14=willin'
TTITLE15=can't find my way home
TTITLE16=love
TTITLE17=national seven
EXTD=
EXTT0=
EXTT1=
EXTT2=
EXTT3=
EXTT4=
EXTT5=
EXTT6=
EXTT7=
EXTT8=
EXTT9=
EXTT10=
EXTT11=
EXTT12=
EXTT13=
EXTT14=
EXTT15=
EXTT16=
EXTT17=
PLAYORDER=
